<svg width="121" height="89" viewBox="0 0 121 89" fill="none" xmlns="http://www.w3.org/2000/svg">
<path d="M115.351 85.5187C119.59 76.194 121.393 65.9439 120.591 55.7303C119.789 45.5167 116.409 35.6745 110.768 27.1275C105.126 18.5805 97.4085 11.6089 88.3389 6.86695C79.2694 2.12504 69.1453 -0.231687 58.9169 0.0179581C48.6885 0.267603 38.6911 3.11543 29.863 8.29417C21.0349 13.4729 13.6657 20.8127 8.44677 29.6248C3.22789 38.4369 0.330545 48.4323 0.0266484 58.6729C-0.277248 68.9135 2.02227 79.0635 6.7094 88.1703L47.3322 67.2066C46.1922 64.9916 45.6329 62.5229 45.7068 60.0321C45.7807 57.5413 46.4854 55.1102 47.7548 52.9668C49.0242 50.8235 50.8166 49.0382 52.9638 47.7786C55.111 46.519 57.5426 45.8263 60.0305 45.7656C62.5183 45.7049 64.9807 46.2781 67.1867 47.4315C69.3927 48.5848 71.2698 50.2805 72.642 52.3594C74.0141 54.4383 74.8363 56.8321 75.0313 59.3164C75.2263 61.8006 74.7878 64.2937 73.7569 66.5617L115.351 85.5187Z" fill="#7D2CFE"/>
</svg>
