<svg width="64" height="16" viewBox="0 0 64 16" fill="none" xmlns="http://www.w3.org/2000/svg">
<path d="M14.872 12L17.968 3.6H19.036L22.12 12H21.04L18.496 4.86L15.928 12H14.872ZM16.288 9.84L16.576 9.024H20.38L20.668 9.84H16.288ZM25.4236 12.144C24.9596 12.144 24.5516 12.056 24.1996 11.88C23.8556 11.696 23.5876 11.416 23.3956 11.04C23.2116 10.664 23.1196 10.192 23.1196 9.624V5.844H24.1276V9.516C24.1276 10.108 24.2596 10.552 24.5236 10.848C24.7956 11.136 25.1676 11.28 25.6396 11.28C25.9756 11.28 26.2756 11.204 26.5396 11.052C26.8036 10.892 27.0116 10.66 27.1636 10.356C27.3236 10.052 27.4036 9.684 27.4036 9.252V5.844H28.4116V12H27.4996L27.4396 10.968C27.2556 11.336 26.9876 11.624 26.6356 11.832C26.2836 12.04 25.8796 12.144 25.4236 12.144ZM30.0939 12V5.844H31.0059L31.0899 6.996C31.2259 6.716 31.4019 6.48 31.6179 6.288C31.8419 6.096 32.1099 5.952 32.4219 5.856C32.7339 5.752 33.0859 5.7 33.4779 5.7V6.756H33.0099C32.7619 6.756 32.5219 6.792 32.2899 6.864C32.0659 6.928 31.8619 7.036 31.6779 7.188C31.5019 7.332 31.3619 7.532 31.2579 7.788C31.1539 8.044 31.1019 8.364 31.1019 8.748V12H30.0939ZM37.1184 12.144C36.5424 12.144 36.0304 12.012 35.5824 11.748C35.1344 11.484 34.7824 11.112 34.5264 10.632C34.2784 10.144 34.1544 9.576 34.1544 8.928C34.1544 8.272 34.2824 7.704 34.5384 7.224C34.7944 6.744 35.1464 6.372 35.5944 6.108C36.0504 5.836 36.5664 5.7 37.1424 5.7C37.7184 5.7 38.2304 5.836 38.6784 6.108C39.1264 6.372 39.4744 6.744 39.7224 7.224C39.9784 7.704 40.1064 8.272 40.1064 8.928C40.1064 9.576 39.9784 10.144 39.7224 10.632C39.4664 11.112 39.1104 11.484 38.6544 11.748C38.2064 12.012 37.6944 12.144 37.1184 12.144ZM37.1184 11.28C37.4784 11.28 37.8064 11.192 38.1024 11.016C38.3984 10.84 38.6344 10.576 38.8104 10.224C38.9864 9.872 39.0744 9.44 39.0744 8.928C39.0744 8.4 38.9864 7.964 38.8104 7.62C38.6424 7.268 38.4104 7.004 38.1144 6.828C37.8184 6.652 37.4944 6.564 37.1424 6.564C36.7904 6.564 36.4664 6.652 36.1704 6.828C35.8744 7.004 35.6344 7.268 35.4504 7.62C35.2744 7.964 35.1864 8.4 35.1864 8.928C35.1864 9.44 35.2744 9.872 35.4504 10.224C35.6264 10.576 35.8584 10.84 36.1464 11.016C36.4424 11.192 36.7664 11.28 37.1184 11.28ZM41.5431 12V5.844H42.4551L42.5391 6.996C42.6751 6.716 42.8511 6.48 43.0671 6.288C43.2911 6.096 43.5591 5.952 43.8711 5.856C44.1831 5.752 44.5351 5.7 44.9271 5.7V6.756H44.4591C44.2111 6.756 43.9711 6.792 43.7391 6.864C43.5151 6.928 43.3111 7.036 43.1271 7.188C42.9511 7.332 42.8111 7.532 42.7071 7.788C42.6031 8.044 42.5511 8.364 42.5511 8.748V12H41.5431ZM48.0583 12.144C47.5703 12.144 47.1623 12.056 46.8343 11.88C46.5143 11.704 46.2743 11.472 46.1143 11.184C45.9543 10.896 45.8743 10.58 45.8743 10.236C45.8743 9.828 45.9783 9.48 46.1863 9.192C46.4023 8.904 46.7023 8.688 47.0863 8.544C47.4703 8.392 47.9223 8.316 48.4423 8.316H50.0263C50.0263 7.924 49.9743 7.6 49.8703 7.344C49.7663 7.08 49.6023 6.884 49.3783 6.756C49.1623 6.62 48.8863 6.552 48.5503 6.552C48.1743 6.552 47.8503 6.648 47.5783 6.84C47.3063 7.024 47.1383 7.3 47.0743 7.668H46.0423C46.0903 7.244 46.2343 6.888 46.4743 6.6C46.7143 6.304 47.0183 6.08 47.3863 5.928C47.7543 5.776 48.1423 5.7 48.5503 5.7C49.1103 5.7 49.5743 5.804 49.9423 6.012C50.3103 6.212 50.5823 6.496 50.7583 6.864C50.9423 7.224 51.0343 7.652 51.0343 8.148V12H50.1343L50.0743 10.92C49.9943 11.088 49.8903 11.248 49.7623 11.4C49.6423 11.544 49.4983 11.672 49.3303 11.784C49.1703 11.896 48.9823 11.984 48.7663 12.048C48.5503 12.112 48.3143 12.144 48.0583 12.144ZM48.2023 11.292C48.4743 11.292 48.7223 11.232 48.9463 11.112C49.1783 10.992 49.3743 10.832 49.5343 10.632C49.6943 10.432 49.8143 10.208 49.8943 9.96C49.9823 9.704 50.0263 9.44 50.0263 9.168V9.096H48.5263C48.1423 9.096 47.8303 9.144 47.5903 9.24C47.3583 9.328 47.1903 9.456 47.0863 9.624C46.9823 9.792 46.9303 9.98 46.9303 10.188C46.9303 10.412 46.9783 10.608 47.0743 10.776C47.1703 10.936 47.3143 11.064 47.5063 11.16C47.6983 11.248 47.9303 11.292 48.2023 11.292Z" fill="#7D2CFE"/>
<path d="M11.461 11.9855C11.8821 11.0603 12.0612 10.0432 11.9815 9.02981C11.9019 8.01637 11.566 7.03978 11.0055 6.19171C10.445 5.34364 9.6782 4.65188 8.77708 4.18137C7.87596 3.71086 6.87006 3.47701 5.8538 3.50178C4.83753 3.52655 3.84422 3.80913 2.96709 4.32298C2.08997 4.83684 1.35778 5.56513 0.839245 6.43951C0.320713 7.31388 0.0328414 8.30567 0.00264723 9.32179C-0.0275469 10.3379 0.200926 11.345 0.666624 12.2487L4.70278 10.1685C4.58951 9.94876 4.53394 9.7038 4.54128 9.45665C4.54863 9.20951 4.61864 8.96828 4.74477 8.75561C4.87089 8.54293 5.04897 8.36579 5.26232 8.24081C5.47566 8.11583 5.71726 8.0471 5.96444 8.04107C6.21162 8.03505 6.45628 8.09192 6.67546 8.20637C6.89464 8.32081 7.08114 8.48906 7.21748 8.69534C7.35381 8.90161 7.4355 9.13914 7.45487 9.38564C7.47425 9.63213 7.43068 9.87951 7.32825 10.1046L11.461 11.9855Z" fill="#7D2CFE"/>
<path d="M53.372 12L56.468 3.6H57.536L60.62 12H59.54L56.996 4.86L54.428 12H53.372ZM54.788 9.84L55.076 9.024H58.88L59.168 9.84H54.788ZM61.9285 12V5.844H62.9365V12H61.9285ZM62.4325 4.596C62.2325 4.596 62.0645 4.532 61.9285 4.404C61.8005 4.268 61.7365 4.1 61.7365 3.9C61.7365 3.7 61.8005 3.54 61.9285 3.42C62.0645 3.292 62.2325 3.228 62.4325 3.228C62.6245 3.228 62.7885 3.292 62.9245 3.42C63.0605 3.54 63.1285 3.7 63.1285 3.9C63.1285 4.1 63.0605 4.268 62.9245 4.404C62.7885 4.532 62.6245 4.596 62.4325 4.596Z" fill="#494949"/>
</svg>
